<?xml version="1.0" encoding="utf-8"?>
<!-- Generator: Adobe Illustrator 22.1.0, SVG Export Plug-In . SVG Version: 6.00 Build 0)  -->
<svg version="1.1" id="Capa_1" xmlns="http://www.w3.org/2000/svg" xmlns:xlink="http://www.w3.org/1999/xlink" x="0px" y="0px"
	 viewBox="0 0 487.8 487.8" style="enable-background:new 0 0 487.8 487.8;" xml:space="preserve">
<style type="text/css">
	.st0{fill:#54D1B9;}
</style>
<g>
	<g>
		<path class="st0" d="M487.8,243.9C487.8,109.4,378.4,0,243.9,0C109.4,0,0,109.4,0,243.9c0,134.5,109.4,243.9,243.9,243.9
			C378.4,487.8,487.8,378.4,487.8,243.9z M74.8,243.9c0-93.3,75.9-169.1,169.1-169.1c93.3,0,169.1,75.9,169.1,169.1
			c0,93.3-75.9,169.1-169.1,169.1C150.6,413,74.8,337.1,74.8,243.9z"/>
		<path class="st0" d="M282.4,282.4h53c21.8,0,39.4-17.6,39.4-39.4c0-21-17-37.9-38-37.9h-54.5v-52.8c0-21.8-17.6-39.4-39.4-39.4
			c-21,0-37.9,17-37.9,38v54.3h-54.3c-21,0-38.2,17.1-38.2,38v1.5c0,21,17.2,37.7,38.2,37.7h54.3v54.5c0,21,17,37.9,38,37.9h1.5
			c21,0,37.8-17,37.8-37.9L282.4,282.4L282.4,282.4z"/>
	</g>
</g>
</svg>
